<svg xmlns="http://www.w3.org/2000/svg" version="1.1">
<path d="M0 0 C5.62188838 5.49695753 8.07368573 11.76763082 8.375 19.5625 C7.46511812 42.48452432 -2.26329085 64.60036064 -12 85 C-12.89251618 86.90336971 -13.78441943 88.80702692 -14.67578125 90.7109375 C-25.66957869 114.03965461 -37.39752267 137.05001565 -50.43115234 159.30810547 C-52.16387241 162.28117914 -53.87430606 165.26640826 -55.58203125 168.25390625 C-71.71683259 196.45105324 -88.72821098 224.1310333 -107 251 C-107.43618652 251.64195312 -107.87237305 252.28390625 -108.32177734 252.9453125 C-121.99341951 273.02871737 -136.3370369 292.63010253 -151 312 C-151.47228027 312.62551758 -151.94456055 313.25103516 -152.43115234 313.89550781 C-158.89355437 322.44551214 -165.46170342 330.887969 -172.25585938 339.17724609 C-175.81930295 343.52788675 -179.30252815 347.93213135 -182.75 352.375 C-186.58887226 357.30833585 -190.60777794 361.99625702 -194.84375 366.59765625 C-197.03541895 369.03946133 -199.08109374 371.5586774 -201.125 374.125 C-205.65245123 379.72851799 -210.54350093 384.94940933 -215.50830078 390.16650391 C-219.27109869 394.12466827 -222.92874588 398.15021845 -226.50219727 402.28051758 C-228.25331105 404.29080191 -230.0058407 406.22741396 -232 408 C-232.66 408 -233.32 408 -234 408 C-234 408.66 -234 409.32 -234 410 C-235.22265625 411.26953125 -235.22265625 411.26953125 -237.0625 412.8125 C-239.80995719 415.12841941 -242.52168361 417.46423721 -245.16796875 419.89453125 C-263.14370021 436.22901122 -284.469361 451.47237002 -309.62109375 451.21484375 C-320.88301954 450.49876754 -330.85722902 445.72519298 -339 438 C-339 437.34 -339 436.68 -339 436 C-339.99 435.67 -340.98 435.34 -342 435 C-343.6837922 432.84366931 -345.19810678 430.72277613 -346.6875 428.4375 C-347.12956787 427.76348145 -347.57163574 427.08946289 -348.02709961 426.39501953 C-361.40406052 405.57677783 -369.67694123 381.5377682 -378.59716797 358.60400391 C-386.60913924 338.02051627 -394.75634789 317.49160086 -403 297 C-403.44811035 295.88334961 -403.8962207 294.76669922 -404.35791016 293.61621094 C-417.08647475 261.93392234 -429.99260969 229.97236729 -445.71655273 199.63989258 C-448 195.20204402 -448 195.20204402 -448 193 C-448.66 192.67 -449.32 192.34 -450 192 C-451.2540847 189.66325225 -452.42350934 187.32971472 -453.5625 184.9375 C-456.85767292 178.15395686 -460.4114133 171.57179031 -464.20532227 165.05444336 C-467 160.20396741 -467 160.20396741 -467 158 C-467.66 157.67 -468.32 157.34 -469 157 C-470.15536446 155.09258729 -471.24735699 153.1467245 -472.3125 151.1875 C-475.76133576 144.984329 -479.49457956 139.0042523 -483.375 133.0625 C-483.93380859 132.2051123 -484.49261719 131.34772461 -485.06835938 130.46435547 C-487.59482332 126.60659433 -490.14321819 122.76955506 -492.77734375 118.984375 C-501.6817759 106.13345005 -510.49939122 92.17200529 -509 76 C-507.28556178 68.7807692 -504.19396234 64.06647093 -498 60 C-489.21615389 54.90536926 -480.5365868 55.6010257 -470.82421875 57.6796875 C-437.07907157 67.17707637 -409.09570537 95.09094329 -387 121 C-386.00289104 122.15259199 -385.00550474 123.30494411 -384.0078125 124.45703125 C-378.70605265 130.61951336 -373.48065935 136.82982565 -368.35546875 143.140625 C-364.60163299 147.69752015 -360.74693353 152.1670359 -356.89453125 156.640625 C-356.42611816 157.18654297 -355.95770508 157.73246094 -355.47509766 158.29492188 C-354.42639871 159.50712204 -353.36768776 160.71069205 -352.30224609 161.90820312 C-351.75262207 162.53146484 -351.20299805 163.15472656 -350.63671875 163.796875 C-350.13229248 164.36245117 -349.62786621 164.92802734 -349.1081543 165.51074219 C-348 167 -348 167 -348 169 C-347.34 169 -346.68 169 -346 169 C-344.66015625 170.36328125 -344.66015625 170.36328125 -343.0625 172.3125 C-327.32580672 190.6719755 -307.05884856 206.8672384 -282.171875 209.2734375 C-266.98911715 209.83736851 -253.70579997 203.32950377 -242.5625 193.4375 C-241.03151081 191.9688475 -239.50965186 190.49057684 -238 189 C-237.38898438 188.44957031 -236.77796875 187.89914062 -236.1484375 187.33203125 C-225.01329818 177.03584078 -217.82363867 162.32492044 -209.99609375 149.52734375 C-198.48929852 130.71568826 -186.43912918 112.49622478 -173 95 C-172.5683252 94.43684082 -172.13665039 93.87368164 -171.69189453 93.29345703 C-166.27036486 86.23988719 -160.74331814 79.40740953 -154.6796875 72.890625 C-152.9409778 71.09839372 -152.9409778 71.09839372 -152 69 C-151.34 69 -150.68 69 -150 69 C-149.61739014 68.12952026 -149.61739014 68.12952026 -149.22705078 67.24145508 C-147.87263534 64.76734282 -146.36587734 63.12278998 -144.3671875 61.13671875 C-143.64273437 60.41419922 -142.91828125 59.69167969 -142.171875 58.94726562 C-141.41390625 58.20154297 -140.6559375 57.45582031 -139.875 56.6875 C-139.14023437 55.95337891 -138.40546875 55.21925781 -137.6484375 54.46289062 C-130.84919158 47.71751198 -123.741118 41.44771385 -116.1875 35.5625 C-115.58494385 35.09223389 -114.9823877 34.62196777 -114.36157227 34.13745117 C-89.48364423 14.80696219 -31.66175315 -25.96408003 0 0 Z " fill="#A945DE" transform="translate(763,290)"/>
<path d="M0 0 C17.4317981 12.88497918 33.15374542 28.20627424 47.20922852 44.6875 C48.20633748 45.84009199 49.20372378 46.99244411 50.20141602 48.14453125 C55.50317586 54.30701336 60.72856917 60.51732565 65.85375977 66.828125 C69.60759553 71.38502015 73.46229498 75.8545359 77.31469727 80.328125 C77.78311035 80.87404297 78.25152344 81.41996094 78.73413086 81.98242188 C79.7828298 83.19462204 80.84154076 84.39819205 81.90698242 85.59570312 C82.45660645 86.21896484 83.00623047 86.84222656 83.57250977 87.484375 C84.07693604 88.04995117 84.5813623 88.61552734 85.10107422 89.19824219 C86.20922852 90.6875 86.20922852 90.6875 86.20922852 92.6875 C86.86922852 92.6875 87.52922852 92.6875 88.20922852 92.6875 C89.54907227 94.05078125 89.54907227 94.05078125 91.14672852 96 C106.8834218 114.3594755 127.15037995 130.5547384 152.03735352 132.9609375 C167.22011136 133.52486851 180.50342854 127.01700377 191.64672852 117.125 C193.17771771 115.6563475 194.69957665 114.17807684 196.20922852 112.6875 C196.82024414 112.13707031 197.43125977 111.58664062 198.06079102 111.01953125 C202.4719964 106.94067696 205.79146711 102.19956181 209.10205078 97.21777344 C210.9448569 94.44964866 212.72820884 91.91727718 215.20922852 89.6875 C214.92771764 91.00221568 214.63369513 92.31425767 214.33422852 93.625 C214.0905957 94.72134766 214.0905957 94.72134766 213.84204102 95.83984375 C213.20922852 97.6875 213.20922852 97.6875 211.20922852 98.6875 C210.18264549 100.63214155 209.23729224 102.62001137 208.33422852 104.625 C207.5955957 106.24728516 207.5955957 106.24728516 206.84204102 107.90234375 C205.61408229 110.69594042 204.47440073 113.51723383 203.35375977 116.35546875 C199.26091525 126.66045832 194.59717467 136.73333224 190.04174805 146.840271 C189.22419142 148.65429968 188.40810244 150.46898959 187.59204102 152.28369141 C174.89551443 180.4134654 160.56341409 206.86051189 142.20922852 231.6875 C141.80349609 232.23889648 141.39776367 232.79029297 140.97973633 233.35839844 C131.75860542 245.82630343 121.23577839 256.81552793 110.20922852 267.6875 C109.38938477 268.54214844 108.56954102 269.39679688 107.72485352 270.27734375 C101.91430562 275.84428172 94.70144832 279.84045647 87.20922852 282.6875 C86.40485352 283.079375 85.60047852 283.47125 84.77172852 283.875 C82.26128529 284.67099419 80.62033575 284.7482588 78.02172852 284.6875 C76.76360352 284.6875 75.50547852 284.6875 74.20922852 284.6875 C73.54922852 285.3475 72.88922852 286.0075 72.20922852 286.6875 C71.87922852 285.6975 71.54922852 284.7075 71.20922852 283.6875 C68.89922852 283.6875 66.58922852 283.6875 64.20922852 283.6875 C64.20922852 283.0275 64.20922852 282.3675 64.20922852 281.6875 C63.21922852 281.6875 62.22922852 281.6875 61.20922852 281.6875 C60.78536729 288.25734899 61.62250839 292.56415427 64.43188477 298.5234375 C65.20922852 300.6875 65.20922852 300.6875 64.20922852 303.6875 C60.40021461 294.19547803 56.62714755 284.6901012 52.88793945 275.17037964 C46.64494106 259.28245128 40.34265334 243.41896421 33.9710083 227.58215332 C33.2009189 225.66683283 32.43223443 223.75095331 31.66381836 221.83496094 C11.65496982 171.87207224 11.65496982 171.87207224 -11.50732422 123.32739258 C-13.79077148 118.88954402 -13.79077148 118.88954402 -13.79077148 116.6875 C-14.45077148 116.3575 -15.11077148 116.0275 -15.79077148 115.6875 C-17.04485619 113.35075225 -18.21428083 111.01721472 -19.35327148 108.625 C-22.64844441 101.84145686 -26.20218479 95.25929031 -29.99609375 88.74194336 C-32.79077148 83.89146741 -32.79077148 83.89146741 -32.79077148 81.6875 C-33.78077148 81.1925 -33.78077148 81.1925 -34.79077148 80.6875 C-35.94613594 78.78008729 -37.03812848 76.8342245 -38.10327148 74.875 C-41.55210725 68.671829 -45.28535105 62.6917523 -49.16577148 56.75 C-49.72458008 55.8926123 -50.28338867 55.03522461 -50.85913086 54.15185547 C-53.3855948 50.29409433 -55.93398968 46.45705506 -58.56811523 42.671875 C-67.47254738 29.82095005 -76.2901627 15.85950529 -74.79077148 -0.3125 C-73.07633327 -7.5317308 -69.98473382 -12.24602907 -63.79077148 -16.3125 C-43.37714009 -28.15240621 -16.79245149 -12.1149464 0 0 Z " fill="#653FE8" transform="translate(328.790771484375,366.3125)"/>
</svg>